:SAMPLES-PER-SECOND 30
:FULLY-SPECIFIED
:DEGREES
423
root  -46.0435 38.6246 1.40833 -177.014 -86.3789 168.93
RightUpLeg  8.29146 5.67741 -1.93663
RightLeg  26.8029 5.92231 3.01633
RightFoot  -23.5588 -0.193742 -0.320868
RightToes  -9.31324e-010 0 -3.6325e-017
Spine  9.38804 -0.158207 10.3007
Spine1  7.12008 2.49298 -8.42131
HEad  -21.4975 -11.5478 -3.06543
LeftShoulder1  -0.453716 4.59961 -35.238
LeftArm  -1.42146 11.9144 -38.855
LeftForeArm  34.3617 -9.89796 -8.6218
LeftHand  -0.236196 9.6817 -4.75287
RightShoulder  -0.649343 -5.28777 29.6795
RightArm  18.4728 14.6595 46.742
RightForeArm  19.0192 6.416 9.17604
RightHand  -0.00547632 3.34567 -0.312008
LeftUpLeg  -16.1507 6.80479 3.88858
LeftLeg  4.4879 2.84149 -0.95735
LeftFoot  2.67066 0.860612 -7.14564
LeftToes  8.61288e-010 -5.99147e-011 2.1039e-011
424
root  -44.7409 38.7245 1.15209 176.242 -86.7626 176.037
RightUpLeg  5.90302 4.74316 -1.27462
RightLeg  26.4605 5.99838 3.01492
RightFoot  -22.561 -0.297068 -1.47395
RightToes  -9.31324e-010 0 -3.6325e-017
Spine  9.64349 -0.720895 10.0313
Spine1  7.54272 1.64513 -7.21604
HEad  -23.4519 -11.2078 -2.23415
LeftShoulder1  -0.349381 4.35722 -34.7665
LeftArm  -4.18705 14.7564 -40.3203
LeftForeArm  38.0313 -6.69256 -8.57173
LeftHand  -0.328718 10.6589 -5.72795
RightShoulder  -0.732251 -5.47077 30.4776
RightArm  21.3333 14.491 44.4176
RightForeArm  15.6937 8.30858 9.55229
RightHand  -0.0361731 3.52362 -0.732706
LeftUpLeg  -15.3233 6.3116 4.34523
LeftLeg  -0.765791 1.75182 -0.724304
LeftFoot  -0.531462 0.905167 -9.5849
LeftToes  8.61288e-010 -5.99147e-011 2.1039e-011
425
root  -43.5815 38.8458 0.946117 173.148 -86.9766 179.797
RightUpLeg  2.99884 4.36506 -0.763036
RightLeg  26.8028 5.64191 2.86449
RightFoot  -20.957 -0.321909 -2.12933
RightToes  -9.31324e-010 0 -3.6325e-017
Spine  9.29706 -0.977179 8.83491
Spine1  7.70281 0.737526 -5.0657
HEad  -24.2451 -10.5972 -1.06705
LeftShoulder1  -0.300184 4.24631 -34.3016
LeftArm  -5.18141 17.7393 -41.5638
LeftForeArm  41.7632 -4.5634 -8.19572
LeftHand  -0.352022 9.94738 -7.20031
RightShoulder  -0.926499 -5.93421 31.5345
RightArm  23.8346 13.9244 42.1944
RightForeArm  14.2841 9.90075 9.5201
RightHand  -0.0152422 4.26394 -0.464144
LeftUpLeg  -15.1506 6.32085 4.75223
LeftLeg  -3.25466 1.41685 -0.813387
LeftFoot  -2.3661 0.999975 -12.4561
LeftToes  8.61288e-010 -5.99147e-011 2.1039e-011
426
root  -42.4538 39.0737 0.760851 178.028 -87.4732 174.954
RightUpLeg  1.4387 3.92308 -0.779089
RightLeg  25.9144 5.66832 2.76832
RightFoot  -18.7937 -0.26284 -2.0877
RightToes  -9.31324e-010 0 -3.6325e-017
Spine  9.77503 -1.08821 7.18856
Spine1  7.39606 -0.0344011 -2.75344
HEad  -23.7019 -11.0354 -0.127829
LeftShoulder1  -0.299409 4.22669 -35.2484
LeftArm  -4.22145 19.5782 -40.8757
LeftForeArm  44.7448 -3.31475 -8.63138
LeftHand  -0.385223 9.81136 -8.29214
RightShoulder  -0.93765 -5.98008 31.2544
RightArm  23.7571 11.5578 40.7581
RightForeArm  14.1872 10.5008 9.15554
RightHand  -0.0418196 3.70809 -0.682362
LeftUpLeg  -15.5607 6.69664 4.67536
LeftLeg  -0.262859 3.3674 -1.26116
LeftFoot  -2.12292 0.948361 -11.5717
LeftToes  8.61288e-010 -5.99147e-011 2.1039e-011
427
root  -41.43 39.3382 0.642694 -163.71 -88.0976 156.578
RightUpLeg  0.624687 3.42379 -1.2676
RightLeg  24.2601 5.48493 2.48026
RightFoot  -16.4708 -0.204302 -2.06367
RightToes  -9.31324e-010 0 -3.6325e-017
Spine  9.63611 -1.23306 6.27727
Spine1  7.7573 -0.423815 -1.91815
HEad  -22.9423 -12.3913 0.59237
LeftShoulder1  -0.304415 4.24132 -35.0711
LeftArm  -4.14128 20.4943 -40.5904
LeftForeArm  47.4896 -2.98567 -8.6038
LeftHand  -0.459199 9.39505 -11.1522
RightShoulder  -1.07137 -6.28146 32.0008
RightArm  21.7924 8.68026 39.0775
RightForeArm  15.7837 10.4958 8.56161
RightHand  0.0828197 2.33751 1.10612
LeftUpLeg  -15.2608 6.71237 3.92556
LeftLeg  3.88527 5.25796 -0.92675
LeftFoot  -2.53264 0.846365 -10.7716
LeftToes  8.61288e-010 -5.99147e-011 2.1039e-011
428
root  -40.468 39.5956 0.574961 -141.146 -88.3149 133.826
RightUpLeg  0.151063 2.8128 -1.83471
RightLeg  22.301 5.71641 2.33473
RightFoot  -14.1212 -0.139948 -1.84689
RightToes  -9.31324e-010 0 -3.6325e-017
Spine  9.63229 -1.1896 6.63007
Spine1  7.42649 -0.227853 -2.2717
HEad  -21.6727 -13.8791 0.67659
LeftShoulder1  -0.199705 3.99853 -34.2514
LeftArm  -4.17758 21.3762 -40.6354
LeftForeArm  48.643 -3.20948 -8.61226
LeftHand  -0.573073 9.87186 -12.7779
RightShoulder  -1.13613 -6.43641 32.1809
RightArm  18.568 4.28098 37.8448
RightForeArm  13.7421 9.87517 7.97881
RightHand  -0.0529407 4.34474 -0.947267
LeftUpLeg  -14.2666 7.93526 2.99939
LeftLeg  8.49036 3.89262 -0.298234
LeftFoot  -2.97596 0.751837 -10.0173
LeftToes  8.61288e-010 -5.99147e-011 2.1039e-011
429
root  -39.5173 39.759 0.585442 -125.581 -88.1094 118.537
RightUpLeg  -1.05623 1.15577 -2.66173
RightLeg  20.8776 7.33492 2.58143
RightFoot  -12.1642 -0.0942763 -1.57229
RightToes  -9.31324e-010 0 -3.6325e-017
Spine  9.22927 -1.04245 7.22934
Spine1  6.88631 0.0171362 -2.38911
HEad  -20.7138 -14.8827 0.589193
LeftShoulder1  -0.164472 3.91157 -34.1956
LeftArm  -3.60973 21.4285 -39.8963
LeftForeArm  48.0304 -3.605 -8.87062
LeftHand  -0.65412 10.6228 -12.5739
RightShoulder  -1.07376 -6.31984 31.5734
RightArm  17.1493 -0.148857 37.1288
RightForeArm  12.2629 9.17352 7.67079
RightHand  -0.0560009 3.93778 -0.959875
LeftUpLeg  -13.6755 9.01682 2.04544
LeftLeg  14.0797 1.63549 0.55011
LeftFoot  -3.98334 0.615991 -9.18625
LeftToes  8.61288e-010 -5.99147e-011 2.1039e-011
430
root  -38.575 39.8641 0.594499 -111.652 -87.957 104.838
RightUpLeg  -2.24934 -1.15916 -3.22894
RightLeg  19.709 9.50376 2.63521
RightFoot  -10.5051 -0.0631271 -1.02026
RightToes  -9.31324e-010 0 -3.6325e-017
Spine  8.76716 -1.04877 7.46139
Spine1  6.5459 -0.0100191 -2.04092
HEad  -20.3289 -14.9011 -0.261472
LeftShoulder1  -0.268037 4.16122 -34.5995
LeftArm  -2.98468 21.2504 -38.7813
LeftForeArm  46.6901 -5.04437 -9.15422
LeftHand  -0.60365 10.5216 -11.7705
RightShoulder  -1.07979 -6.35032 31.3714
RightArm  17.0644 -3.3312 36.4751
RightForeArm  13.008 8.3012 7.7062
RightHand  -0.0216468 3.60233 -0.534262
LeftUpLeg  -12.671 7.95331 1.78678
LeftLeg  19.8606 1.80177 1.0865
LeftFoot  -4.93698 0.477296 -8.01674
LeftToes  8.61288e-010 -5.99147e-011 2.1039e-011
431
root  -37.6267 39.8637 0.639615 -103.464 -88.0452 96.7147
RightUpLeg  -3.67383 -3.09094 -3.40317
RightLeg  19.37 11.2497 2.90556
RightFoot  -9.09253 -0.0474645 -0.725572
RightToes  -9.31324e-010 0 -3.6325e-017
Spine  8.40332 -1.09796 7.97485
Spine1  6.34388 -0.0460194 -1.62353
HEad  -20.0427 -15.1209 -1.13236
LeftShoulder1  -0.309345 4.25417 -35.0828
LeftArm  -1.9828 19.9873 -37.919
LeftForeArm  44.2598 -5.53106 -9.55124
LeftHand  -0.50704 10.3477 -9.96137
RightShoulder  -1.02798 -6.24691 30.9078
RightArm  18.8401 -6.38874 35.8826
RightForeArm  14.1936 8.54136 8.03485
RightHand  -0.0209951 3.65898 -0.525945
LeftUpLeg  -11.3793 6.40128 2.05004
LeftLeg  26.0646 2.11281 1.44815
LeftFoot  -6.49271 0.371796 -7.82574
LeftToes  8.61288e-010 -5.99147e-011 2.1039e-011
432
root  -36.6511 39.8064 0.676815 -90.5629 -88.1635 84.1033
RightUpLeg  -5.54468 -3.89041 -3.34636
RightLeg  19.281 11.7234 2.99997
RightFoot  -7.71824 -0.0432971 -0.283148
RightToes  -9.31324e-010 0 -3.6325e-017
Spine  7.9936 -1.37958 8.24116
Spine1  6.03346 -0.246827 -1.65435
HEad  -19.9885 -15.0815 -0.584005
LeftShoulder1  -0.35763 4.38341 -34.4257
LeftArm  -1.72324 18.7303 -38.3741
LeftForeArm  42.3833 -6.21519 -9.55025
LeftHand  -0.341348 9.52176 -7.82254
RightShoulder  -1.10072 -6.40959 31.3349
RightArm  21.9639 -8.56191 35.1702
RightForeArm  15.1394 9.38532 8.49647
RightHand  -0.0369416 3.32825 -0.732321
LeftUpLeg  -10.0201 5.29525 2.21131
LeftLeg  31.7079 1.66013 1.45399
LeftFoot  -7.95063 0.255675 -7.03774
LeftToes  8.61288e-010 -5.99147e-011 2.1039e-011
433
root  -35.6416 39.7292 0.746615 -71.9497 -88.3298 65.5444
RightUpLeg  -7.21081 -4.43227 -3.19939
RightLeg  19.1586 11.8613 3.16582
RightFoot  -6.13675 -0.0480946 0.137444
RightToes  -9.31324e-010 0 -3.6325e-017
Spine  8.85899 -1.65778 7.82768
Spine1  4.1022 -0.77491 -0.288682
HEad  -19.1443 -14.6648 -1.40817
LeftShoulder1  -0.481645 4.66869 -35.1798
LeftArm  0.388059 17.2685 -37.8125
LeftForeArm  39.2103 -7.43742 -9.98194
LeftHand  -0.334183 10.5515 -5.93798
RightShoulder  -1.06651 -6.37066 30.6587
RightArm  24.7198 -11.9529 34.5637
RightForeArm  15.3972 11.4887 8.15621
RightHand  -0.0145316 3.16742 -0.435319
LeftUpLeg  -7.85684 3.86645 2.47786
LeftLeg  36.1099 0.81525 0.982209
LeftFoot  -9.12299 0.188511 -6.94796
LeftToes  8.61288e-010 -5.99147e-011 2.1039e-011
